<?xml version="1.0" encoding="UTF-8"?>
<svg width="512" height="512" viewBox="0 0 512 512" xmlns="http://www.w3.org/2000/svg">
  <!-- Background circle -->
  <circle cx="256" cy="256" r="256" fill="#FFFFFF"/>
  
  <!-- Outer green ring -->
  <circle cx="256" cy="256" r="240" fill="none" stroke="#32CD32" stroke-width="8"/>
  
  <!-- Orange ring -->
  <circle cx="256" cy="256" r="220" fill="none" stroke="#FFA500" stroke-width="6"/>
  
  <!-- Blue ring -->
  <circle cx="256" cy="256" r="200" fill="none" stroke="#0033CC" stroke-width="6"/>
  
  <!-- Central shield -->
  <path d="M 156 156 L 356 156 L 356 256 L 256 356 L 156 256 Z" fill="#FFFFFF" stroke="#0033CC" stroke-width="4"/>
  
  <!-- Quadrants -->
  <!-- Top-left (blue with book) -->
  <rect x="176" y="176" width="60" height="60" fill="#0033CC"/>
  <rect x="190" y="190" width="32" height="20" fill="none" stroke="#FFFFFF" stroke-width="2"/>
  <line x1="190" y1="200" x2="222" y2="200" stroke="#FFFFFF" stroke-width="1"/>
  
  <!-- Top-right (orange with atom) -->
  <rect x="276" y="176" width="60" height="60" fill="#FFA500"/>
  <circle cx="306" cy="206" r="8" fill="none" stroke="#FFFFFF" stroke-width="2"/>
  <circle cx="298" cy="206" r="2" fill="#FFFFFF"/>
  <circle cx="314" cy="206" r="2" fill="#FFFFFF"/>
  
  <!-- Bottom-left (orange with compass) -->
  <rect x="176" y="276" width="60" height="60" fill="#FFA500"/>
  <line x1="186" y1="306" x2="226" y2="306" stroke="#FFFFFF" stroke-width="2"/>
  <line x1="206" y1="286" x2="206" y2="326" stroke="#FFFFFF" stroke-width="2"/>
  
  <!-- Bottom-right (blue with medical cross) -->
  <rect x="276" y="276" width="60" height="60" fill="#0033CC"/>
  <line x1="286" y1="306" x2="326" y2="306" stroke="#FFFFFF" stroke-width="3"/>
  <line x1="306" y1="286" x2="306" y2="326" stroke="#FFFFFF" stroke-width="3"/>
  
  <!-- Text around the circle (simplified) -->
  <text x="256" y="100" text-anchor="middle" font-family="Arial, sans-serif" font-size="24" font-weight="bold" fill="#0033CC">MUST</text>
  <text x="256" y="440" text-anchor="middle" font-family="Arial, sans-serif" font-size="16" font-weight="bold" fill="#32CD32">SUCCEED WE MUST</text>
</svg>